<svg xmlns="http://www.w3.org/2000/svg" data-name="Layer 2" viewBox="0 0 128 160" x="0px" y="0px"><path fill="#ffffff" d="M13.5,51.69c.53,3.91,3.14,20.86,10.06,36.36v14.74c0,.83,.67,1.5,1.5,1.5H102.94c.83,0,1.5-.67,1.5-1.5v-14.74c6.92-15.5,9.53-32.45,10.06-36.36,9.03-4.63,5.63-18.17-4.38-18.17-8.27,0-12.74,9.84-7.15,16.03-.82,1.29-1.67,2.48-2.54,3.55-3.09-3.87-12.24-12.72-28.32-8.1-.89-1.9-1.5-3.45-1.85-4.39,6.81-5.83,2.6-16.91-6.26-16.91s-13.05,11.09-6.26,16.91c-.35,.94-.96,2.48-1.85,4.39-15.97-4.58-25.19,4.26-28.31,8.11-.87-1.08-1.73-2.27-2.55-3.57,5.59-6.19,1.12-16.03-7.15-16.03-10.01,0-13.41,13.54-4.38,18.17Zm4.38-15.17c6.59,0,9.19,8.68,3.5,12.22-4.33,2.7-10.14-.37-10.14-5.61,0-3.65,2.98-6.61,6.63-6.61Zm4.79,14.95c6.43,10.02,16.76,15.26,19.83,15.16,.47-.02,.7-.21,.86-.29,7.6-5.7,13.56-15.34,16.97-24.12,2.41,.99,5.15,.9,7.31,0,1.03,2.7,3.42,8.26,7.35,13.87,3.95,5.68,9.06,10.16,10.1,10.48,.24,.07,.5,.09,.74,.04,.48-.1,11.43-2.59,19.48-15.14,1.84,1.05,4.01,1.46,6,1.2-.81,5.4-3.41,19.99-9.36,33.56H26.04c-6.39-14.57-9.65-33.59-9.25-33.55,1.91,.22,4.05-.16,5.89-1.21Zm31.87-3.74c-3.01,5.78-7.25,11.76-12.39,15.77-3.85-1.17-8.6-3.96-12.58-8.1,2.2-2.97,10.11-11.68,24.97-7.67Zm9.46-21.02c7.04,0,9.25,9.64,2.77,12.61-4.43,2.01-9.41-1.21-9.41-6,0-3.65,2.98-6.61,6.63-6.61Zm34.42,28.69c-3.37,3.5-7.99,6.69-12.57,8.09-5.21-4.09-9.34-9.92-12.4-15.76,14.79-4,22.75,4.71,24.97,7.67Zm11.69-18.88c7.77,0,9.19,11.22,1.57,13.03-1.19,.29-2.51,.24-3.76-.2-7.15-2.53-5.1-12.84,2.19-12.84Zm-8.68,64.76H26.56v-12.05H101.44v12.05Z"/><path  fill="#ffffff" d="M62.7,81.24c.58,1,2.03,1,2.6,0,4.63-8.07,4.99-8.15,4.4-9.17-4.57-7.96-4.51-8.43-5.7-8.43s-.95,.15-5.7,8.43c-.57,1-.36,.87,4.4,9.17Zm1.3-13.08l2.67,4.66-2.67,4.66-2.67-4.66,2.67-4.66Z"/></svg>